:version 1.10
:name ASF
:units
  mass 1
  length 1
  angle deg
:documentation
  ASF file generated by Kaydara
:root
  axis xyz
  order  tx ty tz rx ry rz
  position 0 0 0
  orientation 0 0 0
:bonedata
  begin
    id 1
    name RightUpLegDummy
    direction -0.718183 -0.695806 0.00816078
    length 4.904
    axis 0 0 0 xyz
  end
  begin
    id 2
    name RightUpLeg
    direction 3.53373e-006 -0.995788 0.0916898
    length 17.4976
    axis -3.49089 -0.000906625 0.000286804 xyz
    dof rx ry rz
  end
  begin
    id 3
    name RightLeg
    direction 0.00371092 -0.995096 -0.0988419
    length 16.5821
    axis 3.68512 0.0193738 -0.131023 xyz
    dof rx ry rz
  end
  begin
    id 4
    name RightFoot
    direction 0.00079151 -0.46099 0.887405
    length 3.77069
    axis 4.81691e-005 -0.120479 -0.188788 xyz
    dof rx ry rz
  end
  begin
    id 5
    name RightToes
    direction 0 0 0
    length 0
    axis 0 0 0 xyz
    dof rx ry rz
  end
  begin
    id 6
    name SpineDummy
    direction 8.3039e-015 1 4.57515e-016
    length 4.6813
    axis 0 0 0 xyz
  end
  begin
    id 7
    name Spine
    direction -3.15643e-008 0.999988 0.00495137
    length 10.1015
    axis -0.001389 0.000121418 2.40972e-006 xyz
    dof rx ry rz
  end
  begin
    id 8
    name Spine1
    direction 0 0 0
    length 0
    axis -0.001389 0.000121451 1.30017e-006 xyz
    dof rx ry rz
  end
  begin
    id 9
    name HEadDummy
    direction -1.99912e-008 0.999999 0.00127422
    length 3.43865
    axis -0.001389 0.000121451 1.30017e-006 xyz
  end
  begin
    id 10
    name HEad
    direction 0 0 0
    length 0
    axis 0 0 0 xyz
    dof rx ry rz
  end
  begin
    id 11
    name LeftShoulder1Dummy
    direction 0.998891 -0.0402509 -0.0244456
    length 3.5433
    axis -0.001389 0.000121451 1.30017e-006 xyz
  end
  begin
    id 12
    name LeftShoulder1
    direction 0.99951 -0.000327763 0.0313091
    length 4.05031
    axis -0.001389 0.000121451 1.30017e-006 xyz
    dof rx ry rz
  end
  begin
    id 13
    name LeftArm
    direction 0.998561 -0.00100056 -0.0536182
    length 10.3537
    axis -23.1894 0.134784 0.967509 xyz
    dof rx ry rz
  end
  begin
    id 14
    name LeftForeArm
    direction 0.998903 0.00866432 0.046012
    length 8.70632
    axis -9.91835 -0.06569 -0.177794 xyz
    dof rx ry rz
  end
  begin
    id 15
    name LeftHand
    direction 0 0 0
    length 0
    axis 0 0 0 xyz
    dof rx ry rz
  end
  begin
    id 16
    name RightShoulderDummy
    direction -0.998891 -0.0402509 -0.0244414
    length 3.5433
    axis -0.001389 0.000121451 1.30017e-006 xyz
  end
  begin
    id 17
    name RightShoulder
    direction -0.99951 -0.000327807 0.0313133
    length 4.05031
    axis 0.215806 0.000203643 -0.0068026 xyz
    dof rx ry rz
  end
  begin
    id 18
    name RightArm
    direction -0.998573 -0.000999564 -0.053403
    length 10.3947
    axis -23.2009 -0.134239 -0.964101 xyz
    dof rx ry rz
  end
  begin
    id 19
    name RightForeArm
    direction -0.998898 0.00868028 0.0461306
    length 8.68355
    axis -9.92322 0.0658061 0.178868 xyz
    dof rx ry rz
  end
  begin
    id 20
    name RightHand
    direction 0 0 0
    length 0
    axis 0 0 0 xyz
    dof rx ry rz
  end
  begin
    id 21
    name LeftUpLegDummy
    direction 0.718183 -0.695806 0.00816078
    length 4.904
    axis 0 0 0 xyz
  end
  begin
    id 22
    name LeftUpLeg
    direction -6.81752e-006 -0.995793 0.0916337
    length 17.4976
    axis -3.48766 0.00143442 -0.000524262 xyz
    dof rx ry rz
  end
  begin
    id 23
    name LeftLeg
    direction -0.00601358 -0.995091 -0.0987824
    length 16.5821
    axis 3.68178 -0.00654042 -0.000285133 xyz
    dof rx ry rz
  end
  begin
    id 24
    name LeftFoot
    direction -0.00417578 -0.460984 0.887399
    length 3.77069
    axis 1.87233e-006 4.66016e-005 -8.6538e-006 xyz
    dof rx ry rz
  end
  begin
    id 25
    name LeftToes
    direction 0 0 0
    length 0
    axis 0 0 0 xyz
    dof rx ry rz
  end
:hierarchy
  begin
    root RightUpLegDummy SpineDummy LeftUpLegDummy
    RightUpLegDummy RightUpLeg
    RightUpLeg RightLeg
    RightLeg RightFoot
    RightFoot RightToes
    SpineDummy Spine
    Spine Spine1
    Spine1 HEadDummy LeftShoulder1Dummy RightShoulderDummy
    HEadDummy HEad
    LeftShoulder1Dummy LeftShoulder1
    LeftShoulder1 LeftArm
    LeftArm LeftForeArm
    LeftForeArm LeftHand
    RightShoulderDummy RightShoulder
    RightShoulder RightArm
    RightArm RightForeArm
    RightForeArm RightHand
    LeftUpLegDummy LeftUpLeg
    LeftUpLeg LeftLeg
    LeftLeg LeftFoot
    LeftFoot LeftToes
  end

:SAMPLES-PER-SECOND 30
:FULLY-SPECIFIED
:DEGREES
16
root  75.4029 40.4172 -0.450635 -176.684 -86.6397 174.881
RightUpLeg  2.47675 -8.04684 -5.20979
RightLeg  4.53284 -3.89725 3.31662
RightFoot  -3.24277 0.0485813 -1.10133
RightToes  0.000481921 0.542163 -0.142578
Spine  -3.74169 0.293252 -0.986217
Spine1  7.27314 0.0253759 1.50262
HEad  6.73621 0.0235804 2.03202
LeftShoulder1  1.13905 -2.58425 -11.4716
LeftArm  -20.8266 7.37013 -4.33235
LeftForeArm  18.1435 -0.0875378 -0.013947
LeftHand  -0.25398 0.0180481 5.50724
RightShoulder  0.583203 0.511919 6.91333
RightArm  -27.6733 -4.11945 3.73602
RightForeArm  13.4303 2.80145 0.132898
RightHand  -0.716326 4.80293 -8.50936
LeftUpLeg  4.329 5.23039 3.04281
LeftLeg  2.81386 12.9477 -3.25439
LeftFoot  -4.69516 0.0434762 -0.165844
LeftToes  1.06246e-005 4.65868e-005 -8.65514e-006
17
root  75.3979 40.4173 -0.45378 -176.633 -86.6512 174.809
RightUpLeg  2.50692 -8.08242 -5.23516
RightLeg  4.55019 -3.87292 3.35077
RightFoot  -3.26164 0.0493357 -1.11305
RightToes  0.000481921 0.542163 -0.142578
Spine  -3.71135 0.295098 -0.943708
Spine1  7.24046 0.0497911 1.40389
HEad  6.85457 0.0336675 2.11598
LeftShoulder1  1.13981 -2.61281 -11.3896
LeftArm  -20.8981 7.3242 -4.35316
LeftForeArm  18.1564 -0.00511101 0.0237066
LeftHand  -0.25398 0.0180481 5.50724
RightShoulder  0.595886 0.570146 7.03036
RightArm  -27.5825 -4.18737 3.61178
RightForeArm  13.3651 2.78513 0.152684
RightHand  -0.708717 4.7765 -8.44356
LeftUpLeg  4.3626 5.23873 3.05318
LeftLeg  2.80543 12.9186 -3.26418
LeftFoot  -4.70568 0.0434183 -0.164944
LeftToes  1.06246e-005 4.65868e-005 -8.65514e-006
18
root  75.3915 40.4171 -0.460066 -176.931 -86.6089 175.075
RightUpLeg  2.55515 -8.07859 -5.22056
RightLeg  4.53646 -3.83914 3.35903
RightFoot  -3.2653 0.0502991 -1.12802
RightToes  0.000481921 0.542163 -0.142578
Spine  -3.6378 0.317218 -0.918837
Spine1  7.1569 0.0803515 1.36577
HEad  6.93786 0.0334283 2.14814
LeftShoulder1  1.132 -2.59046 -11.3233
LeftArm  -20.9364 7.28904 -4.39788
LeftForeArm  18.2704 0.0353217 0.0448819
LeftHand  -0.25398 0.0180481 5.50724
RightShoulder  0.602305 0.606755 7.06115
RightArm  -27.6445 -4.23835 3.55114
RightForeArm  13.9202 2.76567 0.087974
RightHand  -0.708292 4.98127 -8.28735
LeftUpLeg  4.41118 5.28939 3.10365
LeftLeg  2.82245 12.888 -3.29386
LeftFoot  -4.73017 0.0423893 -0.148954
LeftToes  1.06246e-005 4.65868e-005 -8.65514e-006
19
root  75.3869 40.4168 -0.466931 -177.343 -86.5339 175.455
RightUpLeg  2.59015 -8.03427 -5.17867
RightLeg  4.52346 -3.80216 3.33346
RightFoot  -3.27418 0.0499764 -1.12301
RightToes  0.000481921 0.542163 -0.142578
Spine  -3.58165 0.34471 -0.901026
Spine1  7.11225 0.109106 1.35267
HEad  6.90871 -0.0649307 2.12438
LeftShoulder1  1.13242 -2.59483 -11.3162
LeftArm  -20.8823 7.34224 -4.36993
LeftForeArm  18.3353 -0.0139583 0.0243832
LeftHand  -0.25398 0.0180481 5.50724
RightShoulder  0.602305 0.61045 7.03189
RightArm  -27.8133 -4.25001 3.54193
RightForeArm  14.8363 2.74313 -0.0351487
RightHand  -0.716016 5.24118 -8.18728
LeftUpLeg  4.46503 5.33472 3.15097
LeftLeg  2.83096 12.9093 -3.31043
LeftFoot  -4.74911 0.0426404 -0.152855
LeftToes  1.06246e-005 4.65868e-005 -8.65514e-006
20
root  75.3831 40.415 -0.467255 -177.375 -86.5092 175.487
RightUpLeg  2.57465 -8.03273 -5.18608
RightLeg  4.56399 -3.75317 3.33459
RightFoot  -3.31042 0.0471107 -1.07847
RightToes  0.000481921 0.542163 -0.142578
Spine  -3.63879 0.349935 -0.836513
Spine1  7.18979 0.135545 1.24783
HEad  6.78946 -0.227902 2.12692
LeftShoulder1  1.14737 -2.68076 -11.3006
LeftArm  -20.7945 7.46277 -4.31541
LeftForeArm  18.092 -0.088367 -0.0163633
LeftHand  -0.25398 0.0180481 5.50724
RightShoulder  0.604648 0.591844 7.07828
RightArm  -27.949 -4.25032 3.45598
RightForeArm  16.0153 2.71393 -0.174732
RightHand  -0.742718 5.65983 -8.1859
LeftUpLeg  4.48758 5.32692 3.14461
LeftLeg  2.80926 12.9493 -3.30227
LeftFoot  -4.78078 0.0454837 -0.197042
LeftToes  1.06246e-005 4.65868e-005 -8.65514e-006
21
root  75.3784 40.4085 -0.458956 -177.291 -86.5367 175.427
RightUpLeg  2.53415 -8.13397 -5.27098
RightLeg  4.64988 -3.64136 3.42124
RightFoot  -3.37186 0.0405662 -0.97677
RightToes  0.000481921 0.542163 -0.142578
Spine  -3.71567 0.33802 -0.758377
Spine1  7.26614 0.144502 1.15477
HEad  6.69806 -0.322138 2.12954
LeftShoulder1  1.1561 -2.74044 -11.2603
LeftArm  -20.8128 7.51112 -4.37124
LeftForeArm  17.8523 -0.0527585 -0.00613229
LeftHand  -0.25398 0.0180481 5.50724
RightShoulder  0.60804 0.566892 7.15235
RightArm  -28.0338 -4.24284 3.30485
RightForeArm  17.4158 2.67512 -0.31069
RightHand  -0.789064 6.40367 -8.17354
LeftUpLeg  4.4414 5.28921 3.10906
LeftLeg  2.87267 12.9544 -3.26396
LeftFoot  -4.93754 0.0467112 -0.216119
LeftToes  1.06246e-005 4.65868e-005 -8.65514e-006
22
root  75.3766 40.3938 -0.443338 -177.561 -86.5377 175.714
RightUpLeg  2.49455 -8.32018 -5.40648
RightLeg  4.76154 -3.39985 3.58574
RightFoot  -3.47832 0.0282007 -0.784636
RightToes  0.000481921 0.542163 -0.142578
Spine  -3.63159 0.314172 -0.766601
Spine1  7.16363 0.0959914 1.28838
HEad  6.67034 -0.25248 2.07598
LeftShoulder1  1.13952 -2.62914 -11.3309
LeftArm  -20.9006 7.4635 -4.47319
LeftForeArm  18.093 0.0363946 0.0473501
LeftHand  -0.25398 0.0180481 5.50724
RightShoulder  0.611211 0.568726 7.05895
RightArm  -28.2492 -4.18297 3.27635
RightForeArm  18.8013 2.62784 -0.47022
RightHand  -0.829389 7.17192 -8.09057
LeftUpLeg  4.26351 5.24095 3.06827
LeftLeg  3.24226 12.9875 -3.13988
LeftFoot  -5.3504 0.0440405 -0.174613
LeftToes  1.06246e-005 4.65868e-005 -8.65514e-006
